<?xml version="1.0" encoding="utf-8"?>
<!-- Generator: Adobe Illustrator 23.0.0, SVG Export Plug-In . SVG Version: 6.00 Build 0)  -->
<svg version="1.1" id="레이어_1" xmlns="http://www.w3.org/2000/svg" xmlns:xlink="http://www.w3.org/1999/xlink" x="0px"
	 y="0px" viewBox="0 0 500 500" style="enable-background:new 0 0 500 500;" xml:space="preserve">
<style type="text/css">
	.st0{fill:none;stroke:#222323;stroke-width:0.56;stroke-miterlimit:10;}
</style>
<g id="XMLID_91_">
	<g id="XMLID_92_">
		<polygon id="XMLID_1090_" class="st0" points="247.22,200.93 91.75,364.93 247.22,438.9 		"/>
		<polygon id="XMLID_1084_" class="st0" points="247.22,44.55 91.75,364.93 247.22,200.93 		"/>
		<polygon id="XMLID_1082_" class="st0" points="91.75,120.39 247.22,200.93 247.22,438.9 		"/>
		<path id="XMLID_1081_" class="st0" d="M247.22,44.55L91.75,120.39c3.5,1.81,155.47,80.55,155.47,80.55V44.55z"/>
		<polygon id="XMLID_1078_" class="st0" points="247.22,200.93 402.69,364.93 247.22,438.9 		"/>
		<polygon id="XMLID_1072_" class="st0" points="247.22,44.55 402.69,364.93 247.22,200.93 		"/>
		<polygon id="XMLID_1070_" class="st0" points="402.69,120.39 247.22,200.93 247.22,438.9 		"/>
		<path id="XMLID_1069_" class="st0" d="M247.22,44.55l155.47,75.83c-3.5,1.81-155.47,80.55-155.47,80.55V44.55z"/>
	</g>
	<g id="XMLID_93_">
		<polygon id="XMLID_98_" class="st0" points="288.01,241.73 124.01,86.25 50.05,241.73 		"/>
		<polygon id="XMLID_97_" class="st0" points="444.39,241.73 124.01,86.25 288.01,241.73 		"/>
		<polygon id="XMLID_96_" class="st0" points="368.56,86.25 288.01,241.73 50.05,241.73 		"/>
		<path id="XMLID_95_" class="st0" d="M444.39,241.73L368.56,86.25c-1.81,3.5-80.55,155.47-80.55,155.47H444.39z"/>
		<polygon id="XMLID_94_" class="st0" points="288.01,241.73 124.01,397.2 50.05,241.73 		"/>
		<polygon id="XMLID_99_" class="st0" points="444.39,241.73 124.01,397.2 288.01,241.73 		"/>
		<polygon id="XMLID_178_" class="st0" points="368.56,397.2 288.01,241.73 50.05,241.73 		"/>
		<path id="XMLID_179_" class="st0" d="M444.39,241.73L368.56,397.2c-1.81-3.5-80.55-155.47-80.55-155.47H444.39z"/>
	</g>
</g>
</svg>
