<?xml version="1.0" encoding="utf-8"?>
<!-- Generator: Adobe Illustrator 23.0.0, SVG Export Plug-In . SVG Version: 6.00 Build 0)  -->
<svg version="1.1" id="레이어_1" xmlns="http://www.w3.org/2000/svg" xmlns:xlink="http://www.w3.org/1999/xlink" x="0px"
	 y="0px" viewBox="0 0 500 500" style="enable-background:new 0 0 500 500;" xml:space="preserve">
<style type="text/css">
	.st0{fill:none;stroke:#222323;stroke-width:0.56;stroke-miterlimit:10;}
</style>
<g id="XMLID_282_">
	<g id="XMLID_281_">
		<polygon id="XMLID_253_" class="st0" points="157.65,290.13 250,337.97 250,479.33 		"/>
		<path id="XMLID_252_" class="st0" d="M250,245.08l-92.35,45.05c2.08,1.08,92.35,47.85,92.35,47.85V245.08z"/>
		<polygon id="XMLID_249_" class="st0" points="342.35,290.13 250,337.97 250,479.33 		"/>
		<path id="XMLID_248_" class="st0" d="M250,245.08l92.35,45.05c-2.08,1.08-92.35,47.85-92.35,47.85V245.08z"/>
	</g>
	<g id="XMLID_283_">
		<polygon id="XMLID_287_" class="st0" points="242.83,347.58 330.45,291.53 452.86,362.2 		"/>
		<path id="XMLID_286_" class="st0" d="M250,245.08l-7.17,102.5c1.97-1.26,87.61-56.06,87.61-56.06L250,245.08z"/>
		<polygon id="XMLID_285_" class="st0" points="335.19,187.62 330.45,291.53 452.86,362.2 		"/>
		<path id="XMLID_284_" class="st0" d="M250,245.08l85.19-57.46c-0.11,2.34-4.74,103.9-4.74,103.9L250,245.08z"/>
	</g>
	<g id="XMLID_288_">
		<polygon id="XMLID_292_" class="st0" points="335.19,302.54 330.45,198.64 452.86,127.96 		"/>
		<path id="XMLID_291_" class="st0" d="M250,245.08l85.19,57.46c-0.11-2.34-4.74-103.9-4.74-103.9L250,245.08z"/>
		<polygon id="XMLID_290_" class="st0" points="242.83,142.58 330.45,198.64 452.86,127.96 		"/>
		<path id="XMLID_289_" class="st0" d="M250,245.08l-7.17-102.5c1.97,1.26,87.61,56.06,87.61,56.06L250,245.08z"/>
	</g>
	<g id="XMLID_293_">
		<polygon id="XMLID_297_" class="st0" points="342.35,200.04 250,152.19 250,10.84 		"/>
		<path id="XMLID_296_" class="st0" d="M250,245.08l92.35-45.04c-2.08-1.08-92.35-47.85-92.35-47.85V245.08z"/>
		<polygon id="XMLID_295_" class="st0" points="157.65,200.04 250,152.19 250,10.84 		"/>
		<path id="XMLID_294_" class="st0" d="M250,245.08l-92.35-45.04c2.08-1.08,92.35-47.85,92.35-47.85V245.08z"/>
	</g>
	<g id="XMLID_298_">
		<polygon id="XMLID_302_" class="st0" points="257.17,142.58 169.55,198.64 47.14,127.96 		"/>
		<path id="XMLID_301_" class="st0" d="M250,245.08l7.17-102.5c-1.97,1.26-87.61,56.06-87.61,56.06L250,245.08z"/>
		<polygon id="XMLID_300_" class="st0" points="164.81,302.54 169.55,198.64 47.14,127.96 		"/>
		<path id="XMLID_299_" class="st0" d="M250,245.08l-85.19,57.46c0.11-2.34,4.74-103.9,4.74-103.9L250,245.08z"/>
	</g>
	<g id="XMLID_303_">
		<polygon id="XMLID_307_" class="st0" points="164.81,187.62 169.55,291.53 47.14,362.2 		"/>
		<path id="XMLID_306_" class="st0" d="M250,245.08l-85.19-57.46c0.11,2.34,4.74,103.9,4.74,103.9L250,245.08z"/>
		<polygon id="XMLID_305_" class="st0" points="257.17,347.58 169.55,291.53 47.14,362.2 		"/>
		<path id="XMLID_304_" class="st0" d="M250,245.08l7.17,102.5c-1.97-1.26-87.61-56.06-87.61-56.06L250,245.08z"/>
	</g>
</g>
</svg>
